<svg width="359" height="316" viewBox="0 0 359 316" fill="none" xmlns="http://www.w3.org/2000/svg">
<path d="M136.63 109.401C148.426 121.145 155.767 130.27 172.256 135.774L173.246 133.38C159.685 105.677 149.072 77.5239 136.092 50.537L136.931 50.0869C150.084 66.2709 168.877 127.652 184.484 132.05C193.266 124.582 191.544 93.5647 194.73 80.1837C199.466 91.2936 197.227 103.672 197.227 116.316C197.55 123.866 196.237 124.951 200.004 130.045C205.429 125.483 205.752 123.989 209.088 117.667L215.288 116.726C212.791 121.861 207.797 130.025 208.636 135.079L218.991 128.756C218.216 132.459 218.108 132.214 219.228 135.815C231.476 136.715 291.019 98.6593 307.702 89.4318L310.888 91.0482C300.168 96.1428 236.449 136.081 227.644 143.958C231.971 145.227 234.382 144.081 239.312 143.181C235.329 147.15 232.639 148.746 228.032 151.856C250.075 147.702 333.771 131.068 351.918 131.334C342.188 137.984 292.397 145.636 275.455 150.874C304.538 151.119 330.757 147.457 359 148.03C336.698 154.72 279.567 151.815 241.206 163.477C232.38 166.403 233.091 164.602 229.711 170.433L229.797 173.523L226.138 174.341L219.507 180.193L219.163 187.784L216.709 192.367L207.388 187.948L204.331 189.482L203.943 192.183L202.889 198.055C205.106 215.2 218.259 255.159 224.028 273.164L218.926 273.635C212.102 249.226 203.147 222.73 195.484 198.341L193.008 228.704C190.037 207.63 189.004 202.597 188.681 180.909L177.444 198.116L174.624 197.134C174.301 191.876 175.507 193.656 172.579 190.628L166.078 196.029C160.158 195.436 148.147 194.515 143.023 196.889C94.9111 219.108 48.4995 248.1 0 269.297C19.9552 254.689 53.4508 237.645 76.5273 225.308C97.7311 213.973 118.461 201.042 138.933 190.055L141.344 187.15C136.737 185.267 138.201 186.843 136.005 183.221L141.602 177.001L143.131 176.776L143.777 175.037C110.819 174.607 80.3375 179.579 48.435 179.436L51.9654 175.446C71.3394 174.833 138.416 169.902 148.878 158.117C143.152 156.664 144.681 157.81 140.591 154.516L149.244 151.897L148.512 149.789L136.242 145.329L137.986 141.564C145.176 144.081 150.192 146.945 157.08 144.818L158.113 141.053C154.045 131.641 143.174 120.797 135.898 112.715L136.63 109.401Z" fill="#0000FF"/>
<path d="M192.083 146.863L193.331 146.801L195.979 151.507C203.987 153.635 200.844 150.177 212.318 147.722C213.609 153.614 209.605 172.336 206.764 178.31L200.134 177.144C193.805 179.885 196.087 177.737 193.267 184.039L192.018 181.236L188.036 181.461L186.637 179.742L182.891 178.024C174.151 180.847 170.685 181.481 161.515 182.873C163.129 178.719 163.797 175.282 164.852 170.985C159.9 168.857 161.321 170.208 158.307 166.402L166.251 162.678C167.391 156.745 167.65 156.029 169.953 150.382C181.018 145.471 183.235 151.814 192.083 146.863Z" fill="#FCFCFB"/>
<path d="M194.731 80.1833C194.516 71.1399 196.69 3.98973 200.091 0C202.416 17.8413 200.177 99.7842 197.228 116.316C197.228 103.672 199.467 91.2931 194.731 80.1833Z" fill="#3600F8"/>
<path d="M219.508 180.192L226.138 174.34C238.344 187.25 310.458 206.463 317.841 216.693C308.198 217.143 238.365 185.143 219.508 180.192Z" fill="#FFB607"/>
<path d="M138.933 190.054C136.888 189.481 129.31 185.758 128.6 185.737C107.805 184.898 95.1047 199.957 72.9753 198.279L73.6427 197.174C86.3004 191.139 127.416 180.356 141.602 177.001L136.005 183.22C138.201 186.842 136.737 185.266 141.344 187.149L138.933 190.054Z" fill="#FFB607"/>
<path d="M219.164 187.783C227.796 195.435 246.847 215.752 252.078 225.573C238.15 214.606 228.184 205.747 216.71 192.366L219.164 187.783Z" fill="#FFB607"/>
<path d="M229.798 173.523L229.712 170.433C233.092 164.602 232.381 166.403 241.207 163.477C254.704 165.134 254.424 171.068 271.409 173.482C256.728 174.485 244.414 173.973 229.798 173.523Z" fill="#FFB607"/>
<path d="M135.898 112.715C127.417 105.308 107.01 83.4771 100.509 74.802L101.563 72.265C105.697 74.1064 133.875 103.037 136.63 109.4L135.898 112.715Z" fill="#FDF5E4"/>
<path d="M209.089 117.666C218.388 99.2723 225.686 83.5385 238.107 66.8021C233.306 83.6408 223.447 100.929 215.289 116.725L209.089 117.666Z" fill="#FFB607"/>
<path d="M153.098 237.481C159.298 220.397 163.151 211.518 174.625 197.134L177.445 198.116C170.47 212.745 162.225 224.101 153.098 237.481Z" fill="#FFB607"/>
<path d="M218.926 273.634L224.028 273.163C227.558 288.836 232.014 297.777 234.274 315.373C226.934 299.884 223.016 290.043 218.926 273.634Z" fill="#FFB607"/>
<path d="M203.944 192.182C208.723 199.405 221.058 216.796 219.917 225.43C214.406 217.676 207.539 202.187 202.889 198.054L203.944 192.182Z" fill="#FFB607"/>
<path d="M307.702 89.4314C314.655 84.1527 317.97 81.1655 326.43 77.9123L329.573 78.6489C325.655 84.9506 318.035 87.6105 310.888 91.0478L307.702 89.4314Z" fill="#FFB607"/>
<path d="M136.243 145.329C130.409 143.528 119.065 140.889 116.051 136.551C123.219 135.549 130.796 139.109 137.986 141.564L136.243 145.329Z" fill="#FFB607"/>
<path d="M316.744 109.687C318.078 109.892 320.231 110.833 321.609 111.344C318.079 115.621 308.994 117.728 302.708 120.06L299.845 119.344C301.288 115.6 311.707 112.04 316.744 109.687Z" fill="#FDF5E4"/>
</svg>
